# xmcd
#
# Track frame offsets: 
#        150
#        11765
#        33058
#        45621
#        62275
#        75277
#        88365
#        98608
#        116492
#        131038
#        152644
#
# Disc length: 2265 seconds
#
# Revision: 0
# Processed by: cddbd v1.5.2PL0 Copyright (c) Steve Scherf et al.
# Submitted via: ExactAudioCopy v1.3
#
DISCID=7808d70b
DTITLE=Sven Zetterberg and The Chicago Express - Watch Your Step!
DYEAR=1991
DGENRE=Blues, Swing
TTITLE0=Thaw-Out
TTITLE1=Will It Be Me Or Him
TTITLE2=My Kind Of Baby
TTITLE3=Cry Before I Go
TTITLE4=Move Or Stay
TTITLE5=I don't play
TTITLE6=Loose Screws
TTITLE7=Big Bird
TTITLE8=No More Chances
TTITLE9=Nine Pound Steel
TTITLE10=Whiskey Heaven
EXTD=
EXTT0=
EXTT1=
EXTT2=
EXTT3=
EXTT4=
EXTT5=
EXTT6=
EXTT7=
EXTT8=
EXTT9=
EXTT10=
PLAYORDER=
